<svg xmlns="http://www.w3.org/2000/svg" xmlns:xlink="http://www.w3.org/1999/xlink" version="1.1" x="0px" y="0px" viewBox="0 0 100 125" style="enable-background:new 0 0 100 100;" xml:space="preserve"><path d="M74,32h4v52c0,1.1-0.9,2-2,2s-2-0.9-2-2V66H12v18c0,1.1-0.9,2-2,2s-2-0.9-2-2V32h4v30h62V32z M96,14H86c-1.1,0-2,0.9-2,2v26  c0,1.1,0.9,2,2,2h10c1.1,0,2-0.9,2-2V16C98,14.9,97.1,14,96,14z M89,84c0,1.1,0.9,2,2,2s2-0.9,2-2V48h-4V84z M66,72H20  c-1.1,0-2,0.9-2,2s0.9,2,2,2h4v8c0,1.1,0.9,2,2,2s2-0.9,2-2v-8h30v8c0,1.1,0.9,2,2,2s2-0.9,2-2v-8h4c1.1,0,2-0.9,2-2S67.1,72,66,72z   M66,14H20c-6.6,0-12,5.4-12,12v2h70v-2C78,19.4,72.6,14,66,14z"/><text x="0" y="115" fill="#000000" font-size="5px" font-weight="bold" font-family="'Helvetica Neue', Helvetica, Arial-Unicode, Arial, Sans-serif">Created by IconMark</text><text x="0" y="120" fill="#000000" font-size="5px" font-weight="bold" font-family="'Helvetica Neue', Helvetica, Arial-Unicode, Arial, Sans-serif">from the Noun Project</text></svg>