<svg version="1.2" xmlns="http://www.w3.org/2000/svg" viewBox="0 0 100 125" width="100" height="125">
	<title>station-icon-svg</title>
	<style>
		.s0 { fill: #000000 } 
	</style>
	<path id="Layer" fill-rule="evenodd" class="s0" d="m74 62h-62v-30h-4v52c0 1.1 0.9 2 2 2 1.1 0 2-0.9 2-2v-18h62v18c0 1.1 0.9 2 2 2 1.1 0 2-0.9 2-2v-52h-4zm22-48h-10c-1.1 0-2 0.9-2 2v26c0 1.1 0.9 2 2 2h10c1.1 0 2-0.9 2-2v-26c0-1.1-0.9-2-2-2zm-7 70c0 1.1 0.9 2 2 2 1.1 0 2-0.9 2-2v-36h-4zm-23-12h-46c-1.1 0-2 0.9-2 2 0 1.1 0.9 2 2 2h4v8c0 1.1 0.9 2 2 2 1.1 0 2-0.9 2-2v-8h30v8c0 1.1 0.9 2 2 2 1.1 0 2-0.9 2-2v-8h4c1.1 0 2-0.9 2-2 0-1.1-0.9-2-2-2zm0-58h-46c-6.6 0-12 5.4-12 12v2h70v-2c0-6.6-5.4-12-12-12z"/>
</svg>