<svg viewBox="0 0 90 26" xmlns="http://www.w3.org/2000/svg" xmlns:svg="http://www.w3.org/2000/svg" version="1.2">
 <style/>
 <g class="layer">
  <path d="m0,19.8l0,-18.4c0,-0.3 0.3,-0.5 0.6,-0.5l88.8,0c0.3,0 0.6,0.2 0.6,0.5l0,19.8c0,0.3 -0.3,0.5 -0.6,0.5l-15.3,0q0.1,-0.2 0.1,-0.5c0,-2.5 -2,-4.5 -4.5,-4.5c-2.5,0 -4.5,2 -4.5,4.5q0,0.3 0,0.5l-36.2,0q0,-0.2 0.1,-0.5c0,-2.5 -2.1,-4.5 -4.6,-4.5c-2.4,0 -4.5,2 -4.5,4.5q0,0.3 0.1,0.5l-12.5,0l-7.1,-1.4c-0.3,0 -0.5,-0.3 -0.5,-0.5zm87.2,-4.8l1.7,0l0,-11.6l-1.7,0l0,11.6zm-5.7,4.2l4.5,0l0,-15.8l-4.5,0l0,15.8zm-5.6,0l4.5,0l0,-15.8l-4.5,0l0,15.8zm-11.3,-7l10.2,0l0,-8.8l-10.2,0l0,8.8zm-11.3,-7l10.2,0l0,-1.7l-10.2,0l0,1.7zm0,7l10.2,0l0,-5.9l-10.2,0l0,5.9zm-5.6,7.1l4.5,0l0,-15.8l-4.5,0l0,15.8zm-5.7,0l4.6,0l0,-15.8l-4.6,0l0,15.8zm-11.2,-14.1l10.1,0l0,-1.7l-10.1,0l0,1.7zm0,7l10.1,0l0,-5.9l-10.1,0l0,5.9zm-11.3,0l10.1,0l0,-8.7l-10.1,0l0,8.7zm-5.7,7l4.5,0l0,-15.8l-4.5,0l0,15.8zm-5.6,0l4.5,0l0,-15.8l-4.5,0l0,15.8zm-5.7,-7l4.6,0l0,-8.8l-4.6,0l0,8.8z" fill="#00b900" fill-rule="evenodd" id="svg_1"/>
  <path d="m73.6,21.2c0,2.2 -1.7,3.9 -3.9,3.9c-2.2,0 -4,-1.7 -4,-3.9c0,-2.2 1.8,-4 4,-4c2.2,0 3.9,1.8 3.9,4zm-2.2,0c0,-1 -0.8,-1.7 -1.7,-1.7c-0.9,0 -1.7,0.7 -1.7,1.7c0,0.9 0.8,1.7 1.7,1.7c0.9,0 1.7,-0.8 1.7,-1.7z" fill="#00b900" fill-rule="evenodd" id="svg_2"/>
  <path d="m28.5,21.2c0,2.2 -1.8,3.9 -4,3.9c-2.1,0 -3.9,-1.7 -3.9,-3.9c0,-2.2 1.8,-4 3.9,-4c2.2,0 4,1.8 4,4zm-2.3,0c0,-1 -0.7,-1.7 -1.7,-1.7c-0.9,0 -1.6,0.7 -1.6,1.7c0,0.9 0.7,1.7 1.6,1.7c1,0 1.7,-0.8 1.7,-1.7z" fill="#00b900" fill-rule="evenodd" id="svg_3"/>
 </g>
</svg>